<svg width="12" height="12" viewBox="0 0 12 12" fill="none" xmlns="http://www.w3.org/2000/svg">
<path d="M11.3333 3.33333H9.45999C9.15999 2.81333 8.74666 2.36667 8.24666 2.02667L9.33332 0.94L8.39332 0L6.94666 1.44667C6.63999 1.37333 6.32666 1.33333 5.99999 1.33333C5.67332 1.33333 5.35999 1.37333 5.05999 1.44667L3.60666 0L2.66666 0.94L3.74666 2.02667C3.25332 2.36667 2.83999 2.81333 2.53999 3.33333H0.666656V4.66667H2.05999C2.02666 4.88667 1.99999 5.10667 1.99999 5.33333V6H0.666656V7.33333H1.99999V8C1.99999 8.22667 2.02666 8.44667 2.05999 8.66667H0.666656V10H2.53999C3.23332 11.1933 4.51999 12 5.99999 12C7.47999 12 8.76666 11.1933 9.45999 10H11.3333V8.66667H9.93999C9.97332 8.44667 9.99999 8.22667 9.99999 8V7.33333H11.3333V6H9.99999V5.33333C9.99999 5.10667 9.97332 4.88667 9.93999 4.66667H11.3333V3.33333ZM8.66666 8C8.66666 8.14667 8.64666 8.31333 8.61999 8.46667L8.55332 8.9L8.30666 9.33333C7.82666 10.16 6.94666 10.6667 5.99999 10.6667C5.05332 10.6667 4.17332 10.1533 3.69332 9.33333L3.44666 8.90667L3.37999 8.47333C3.35332 8.32 3.33332 8.15333 3.33332 8V5.33333C3.33332 5.18 3.35332 5.01333 3.37999 4.86667L3.44666 4.43333L3.69332 4C3.89332 3.65333 4.17332 3.35333 4.49999 3.12667L4.87999 2.86667L5.37332 2.74667C5.57999 2.69333 5.79332 2.66667 5.99999 2.66667C6.21332 2.66667 6.41999 2.69333 6.63332 2.74667L7.08666 2.85333L7.49332 3.13333C7.82666 3.36 8.09999 3.65333 8.29999 4.00667L8.55332 4.44L8.61999 4.87333C8.64666 5.02 8.66666 5.18667 8.66666 5.33333V8ZM4.66666 7.33333H7.33332V8.66667H4.66666V7.33333ZM4.66666 4.66667H7.33332V6H4.66666V4.66667Z" fill="#55596D"/>
</svg>
