<svg width="14" height="12" viewBox="0 0 14 12" fill="none" xmlns="http://www.w3.org/2000/svg">
<path d="M6.99998 11.3333H0.333313V10H4.16665C3.67998 8.12666 2.20665 6.66 0.333313 6.17333C0.75998 6.06666 1.20665 6 1.66665 6C4.61331 6 6.99998 8.38666 6.99998 11.3333ZM13.6666 6.17333C13.24 6.06666 12.7933 6 12.3333 6C10.38 6 8.67998 7.05333 7.74665 8.62C7.93998 9.06 8.09998 9.52 8.19331 10C8.27998 10.4333 8.32665 10.88 8.32665 11.3333H13.66V10H9.82665C10.32 8.12666 11.7933 6.66 13.6666 6.17333ZM9.42665 5.34666C9.94665 3.95333 10.9133 2.78666 12.1533 2.01333C9.29331 2.10666 6.99998 4.44666 6.99998 7.33333C6.99998 7.34 6.99998 7.34666 6.99998 7.34666C7.63331 6.5 8.46665 5.81333 9.42665 5.34666ZM6.61331 3.9C6.05331 2.44 4.91998 1.26 3.46665 0.666664C4.42665 1.90666 4.99998 3.45333 4.99998 5.14C4.99998 5.28 4.97998 5.41333 4.97331 5.54666C5.25998 5.70666 5.52665 5.89333 5.78665 6.09333C5.92665 5.30666 6.21998 4.56666 6.61331 3.9Z" fill="#55596D"/>
</svg>
