<svg width="17" height="16" viewBox="0 0 17 16" fill="none" xmlns="http://www.w3.org/2000/svg">
<path d="M8.5859 0.277924C10.5085 0.308402 12.3548 0.844564 13.9624 2.08868C15.013 2.9018 15.8088 3.91532 16.2276 5.1861C16.8611 7.10868 16.5438 8.89709 15.3918 10.5461C15.013 11.0882 14.5538 11.5588 14.0322 11.9643C13.8794 12.0831 13.8455 12.1928 13.8959 12.3824C14.088 13.1042 14.0376 13.8154 13.7362 14.5024C13.5718 14.8774 13.3381 15.2008 12.999 15.4397C12.4457 15.8297 11.7789 15.8299 11.2276 15.4379C10.8389 15.1614 10.5954 14.7774 10.4225 14.3414C10.3932 14.2675 10.3913 14.1355 10.3193 14.136C10.2189 14.1367 10.2342 14.2733 10.2035 14.3502C10.0477 14.7409 9.81914 15.0745 9.47506 15.3225C8.82904 15.7882 7.978 15.7399 7.38637 15.206C7.11226 14.9586 6.91479 14.6609 6.78915 14.3145C6.76965 14.2606 6.7524 14.2055 6.7279 14.1539C6.70967 14.1153 6.67566 14.1118 6.65665 14.1522C6.62539 14.2188 6.60089 14.2886 6.57492 14.3576C6.44546 14.7007 6.25602 15.0046 5.99132 15.2605C5.33835 15.8915 4.43693 15.8898 3.78641 15.2524C3.31228 14.7878 3.08668 14.206 3.02357 13.5586C2.9827 13.1399 2.99554 12.7192 3.12755 12.3144C3.17429 12.1708 3.13411 12.0907 3.02131 12.0036C2.33168 11.4706 1.7571 10.8325 1.31022 10.0829C0.714472 9.08379 0.418411 8.00136 0.466628 6.83859C0.525232 5.42434 1.05081 4.18757 1.96712 3.11681C3.04258 1.86005 4.41155 1.06928 5.99015 0.622004C6.80865 0.389742 7.64656 0.289194 8.5859 0.277924ZM8.49632 10.7389C9.12529 10.7416 9.74172 10.6563 10.3429 10.471C11.2074 10.2045 11.9716 9.77361 12.5771 9.08829C13.6045 7.92542 13.6394 6.4015 12.6658 5.19305C12.3529 4.80478 11.9732 4.49284 11.5458 4.23882C10.7689 3.77704 9.92537 3.534 9.02641 3.46099C7.88607 3.36828 6.79836 3.55242 5.77464 4.06624C5.02474 4.44266 4.39754 4.96344 3.99407 5.71471C3.53101 6.57683 3.50642 7.45687 3.93223 8.34084C4.27562 9.0537 4.82854 9.57055 5.5025 9.96393C6.42655 10.5033 7.43262 10.7346 8.49632 10.7389Z" fill="#6E44FF"/>
</svg>
