<svg width="16" height="16" viewBox="0 0 16 16" fill="none" xmlns="http://www.w3.org/2000/svg">
<path d="M9.35853 11.5445C8.73926 11.5445 8.1201 11.5445 7.50083 11.5445C7.44301 11.5445 7.38519 11.5446 7.32747 11.5436C7.25514 11.5424 7.20977 11.523 7.26131 11.4412C7.28768 11.3994 7.31355 11.3571 7.33972 11.3151C7.85461 10.4883 8.37166 9.66278 8.88254 8.8335C8.96633 8.69757 9.05737 8.62437 9.22888 8.60663C10.2466 8.50138 11.2627 8.38034 12.2792 8.26392C12.3364 8.25735 12.3949 8.2504 12.449 8.23256C12.5736 8.1914 12.6434 8.1033 12.641 8.00294C12.6385 7.90377 12.566 7.81125 12.4456 7.77343C12.3674 7.74883 12.2847 7.7355 12.2031 7.7256C11.4903 7.63897 10.7773 7.5543 10.0643 7.46904C9.70006 7.42543 9.77602 7.407 9.91508 7.18474C10.5981 6.0931 11.2823 5.00206 11.9655 3.91053C12.0136 3.8336 12.0596 3.7553 12.1034 3.67592C12.1397 3.61016 12.1625 3.53881 12.1588 3.46267C12.1496 3.27411 11.9971 3.18464 11.8295 3.27078C11.725 3.32448 11.6475 3.41171 11.5681 3.49589C10.6787 4.43885 9.78924 5.38162 8.8995 6.32429C8.64734 6.59144 8.6787 6.58448 8.54757 6.25324C8.28954 5.60104 8.03317 4.94816 7.77494 4.29606C7.74465 4.21953 7.71418 4.14171 7.67213 4.07145C7.59981 3.95032 7.4826 3.89269 7.38695 3.91915C7.28875 3.9463 7.21829 4.05675 7.218 4.19444C7.2179 4.25187 7.2277 4.30959 7.23593 4.36672C7.37813 5.35486 7.51896 6.3432 7.66508 7.33076C7.69222 7.51412 7.65812 7.65269 7.51984 7.79499C6.85246 8.48178 6.1985 9.1815 5.53983 9.87672C5.50573 9.91268 5.473 9.95002 5.43723 9.98423C5.34471 10.0726 5.33256 10.0724 5.29934 9.94836C5.1201 9.27891 4.94311 8.60888 4.76759 7.93846C4.60882 7.33193 4.453 6.72462 4.29581 6.1177C4.2667 6.0053 4.23603 5.89426 4.14224 5.8139C4.00044 5.69228 3.83442 5.73158 3.76308 5.90553C3.72711 5.99314 3.7375 6.08379 3.74622 6.17445C3.80737 6.80694 3.86853 7.43934 3.92899 8.07194C4.00269 8.84408 4.0759 9.61633 4.14871 10.3886C4.17115 10.6268 4.18654 10.8657 4.21506 11.1032C4.22799 11.211 4.20447 11.2904 4.12823 11.37C3.6542 11.8648 3.18536 12.3646 2.713 12.8608C2.59119 12.9888 2.58511 12.9886 2.46898 12.8552C1.78415 12.0681 1.31169 11.167 1.07805 10.1519C0.623624 8.17738 0.925564 6.33134 2.07658 4.64661C2.59226 3.89171 3.26827 3.31027 4.04905 2.83497C5.43242 1.99275 6.93046 1.45414 8.49759 1.08183C9.69536 0.797241 10.9032 0.573113 12.1299 0.46443C12.7959 0.405434 13.4645 0.379855 14.1336 0.390439C14.3166 0.393379 14.3195 0.394261 14.367 0.573211C14.5445 1.24363 14.6924 1.92072 14.8013 2.60575C15.06 4.23285 15.1497 5.87123 15.1051 7.51666C15.0778 8.5247 14.9937 9.52744 14.716 10.5037C14.4632 11.3927 14.0769 12.2238 13.5483 12.9776C12.6897 14.2016 11.5036 14.9829 10.0704 15.3708C8.45947 15.8069 6.88284 15.6763 5.35912 14.9816C5.30659 14.9577 5.25494 14.9319 5.20389 14.9049C5.15871 14.8811 5.1541 14.8419 5.17566 14.8008C5.19859 14.7571 5.22613 14.7157 5.2522 14.6737C5.57894 14.148 5.90939 13.6246 6.23005 13.0952C6.31022 12.9628 6.40547 12.9033 6.56071 12.8799C7.71908 12.7053 8.87588 12.52 10.0332 12.3377C10.4652 12.2697 10.897 12.2017 11.3286 12.1314C11.4097 12.1182 11.4923 12.1025 11.5684 12.0729C11.6899 12.0255 11.7642 11.9128 11.7552 11.8077C11.7448 11.6849 11.6629 11.6205 11.5587 11.5761C11.4644 11.5358 11.3647 11.5421 11.2658 11.5421C10.6301 11.542 9.99436 11.542 9.35863 11.542C9.35853 11.5424 9.35853 11.5435 9.35853 11.5445Z" fill="#16C172"/>
</svg>
